<svg width="19" height="21" viewBox="0 0 19 21" fill="none" xmlns="http://www.w3.org/2000/svg">
<path d="M4.86589 20.5C3.57321 20.5 2.32939 19.9877 1.42683 19.061C-0.475609 17.1586 -0.475609 14.061 1.42683 12.1586L12.2317 1.47569C12.8416 0.86594 13.7195 0.5 14.622 0.5C15.5244 0.5 16.4025 0.865783 17.0367 1.50004C18.3782 2.84155 18.3782 4.98775 17.0367 6.3293L6.23187 17.0122C5.86608 17.3782 5.37812 17.5731 4.86606 17.5731C4.35378 17.5731 3.86602 17.378 3.47573 17.0122C2.71968 16.2562 2.71968 15.0121 3.47573 14.2561L8.91474 8.93901C9.10989 8.74386 9.42702 8.74386 9.59767 8.93901C9.79281 9.13415 9.79281 9.45129 9.59767 9.62193L4.18305 14.939C3.81726 15.3048 3.81726 15.939 4.18305 16.3048C4.37819 16.4999 4.62198 16.5974 4.86597 16.5974C5.13427 16.5974 5.37825 16.4999 5.5489 16.3048L16.3538 5.6219C17.305 4.67068 17.305 3.13405 16.3538 2.18284C15.8905 1.71938 15.2807 1.47561 14.6221 1.47561C13.9636 1.47561 13.3538 1.71958 12.8903 2.18284L2.10988 12.8657C0.597734 14.3779 0.597734 16.8657 2.10988 18.3779C2.84163 19.1097 3.81715 19.5243 4.86602 19.5243C5.91471 19.5243 6.8904 19.1097 7.62215 18.3779L16.9636 9.15843C17.1587 8.96329 17.4759 8.96329 17.6465 9.15843C17.8417 9.35357 17.8417 9.67071 17.6465 9.84136L8.30508 19.0852C7.40251 19.9876 6.1587 20.4999 4.86602 20.4999L4.86589 20.5Z" fill="white"/>
</svg>
