<svg width="49" height="49" viewBox="0 0 49 49" fill="none" xmlns="http://www.w3.org/2000/svg">
<path d="M24.4995 42.2073C28.5741 42.2073 32.3396 40.8146 35.3311 38.4421L34.7122 38.2874C34.0934 38.1327 33.5775 37.72 33.268 37.2041C31.5659 38.3903 29.6576 39.2156 27.5428 39.6798C27.7489 39.4736 27.9555 39.2671 27.9555 39.1638C27.9555 39.1124 28.1102 39.0606 28.2134 39.0091C28.4714 38.8544 28.7294 38.6997 28.8323 38.545C28.987 38.287 29.5543 37.7197 29.7605 37.6168C30.0699 37.4621 31.8753 35.8113 31.9782 35.5538C32.2876 34.8832 32.6488 34.1096 32.9064 33.9549C33.3191 33.6455 32.9579 33.0267 32.8032 32.8202L32.7517 32.7688C32.597 32.5108 31.5655 32.4075 31.4108 32.4075C31.2046 32.4075 30.3274 31.9434 30.276 31.7887C30.276 31.4793 29.3992 30.654 29.1927 30.654C29.0894 30.654 28.5739 30.5507 28.2645 30.1898C27.9032 29.7772 26.717 29.5192 26.3561 29.5192C26.0467 29.5192 25.5308 29.4678 25.2214 29.3131C25.0153 29.1065 24.4993 29.3127 23.9834 29.5192C23.8802 29.5707 23.7773 29.6225 23.7255 29.6225C23.5708 29.6739 22.5392 29.4678 22.2813 29.3645C22.2298 29.3131 22.178 28.9004 22.178 28.6939C22.178 28.4359 22.1265 28.2812 22.0747 28.1779C22.0233 28.0747 21.7653 27.9718 21.3012 27.8685C21.1979 27.8171 21.0432 27.8171 20.94 27.7653C20.94 27.7138 20.9914 27.5591 21.0432 27.5073C21.1979 27.1461 21.3012 26.8885 21.1979 26.682C21.1465 26.6305 21.0947 26.5787 21.0432 26.5787C20.8371 26.5272 20.4759 26.7334 20.1664 26.9914C20.0117 27.0946 19.8052 27.2493 19.7538 27.2493C19.5476 27.2493 19.1349 27.0946 18.6704 26.7852C18.4125 26.6305 18.7219 25.7019 18.8766 25.2896C18.928 25.0835 18.9798 24.9284 19.0313 24.8255C19.0313 24.7222 19.5472 24.5675 20.2693 24.5675C20.4754 24.5675 20.7334 24.5161 21.0428 24.4643C21.3008 24.4128 21.5069 24.361 21.7134 24.361C21.8167 24.361 22.0229 24.619 22.1261 24.8251C22.3323 25.0831 22.4874 25.2893 22.6935 25.2893C23.0029 25.2378 22.9515 24.8766 22.9515 24.5672V24.361C22.9515 24.2063 23.3642 23.5357 23.6736 23.3809C24.0348 23.1748 24.5504 22.4527 24.3956 22.0915C24.3956 21.9367 25.0663 21.5241 25.2724 21.3694C25.3757 21.3179 25.4786 21.2661 25.5304 21.2147C25.5819 21.1632 25.6851 21.1114 25.7366 21.06C25.9427 20.9567 26.2525 20.802 26.2525 20.3893C26.2525 20.1832 26.9746 20.0799 27.3872 19.9766C27.4905 19.9766 27.5934 19.9252 27.6452 19.9252C27.9032 19.8737 28.0579 19.8219 28.1611 19.6672C28.2644 19.5125 28.1611 19.3578 28.1097 19.1513C28.0582 19.0998 28.0582 19.048 28.0064 18.9966C27.8517 18.6354 27.955 18.4292 28.2644 18.1712C28.4191 18.068 28.6771 18.068 28.935 18.0165C29.2444 17.9651 29.5539 17.9651 29.8633 17.8104C30.0694 17.7071 30.1727 17.6042 30.2245 17.501C30.2759 17.2948 30.173 17.1397 30.0698 17.0368C30.0183 16.9854 29.9665 16.9336 29.9665 16.8821C29.8118 16.5727 29.5538 16.3662 29.3477 16.2115C29.2444 16.1082 29.1415 15.6956 29.0897 15.438C29.0383 15.2832 29.0383 15.1285 28.9865 15.0253C28.935 14.922 28.8832 14.8706 28.7803 14.8191C28.5223 14.7159 28.1615 14.8706 27.955 14.9738C27.955 14.9224 27.9035 14.8191 27.9035 14.7677C27.8521 14.613 27.8521 14.4583 27.7488 14.355C27.6973 14.3035 27.5426 14.2003 27.4394 14.0456C27.2332 13.8394 26.9234 13.5815 26.7687 13.4267C26.6655 13.3235 26.5626 13.3235 26.4593 13.3235C26.2014 13.3749 25.9952 13.6847 25.7887 13.9941C25.7372 14.0456 25.7372 14.0456 25.7372 14.0974C25.4278 14.5615 25.376 14.9742 25.5825 15.1289C25.5825 15.1289 25.634 15.2321 25.5311 15.3868C25.4278 15.6448 25.2731 15.7995 25.1699 15.7995C24.8604 15.7481 24.8086 16.1607 24.7057 16.573C24.7057 16.7277 24.6543 16.9343 24.6025 17.0372C24.551 16.9857 24.4478 16.7277 24.4478 16.0571V15.9538C24.4478 15.8506 24.3963 15.7991 24.3445 15.7477C24.2413 15.6444 24.1384 15.6962 24.0351 15.6962C23.8804 15.6962 23.8289 15.6962 23.7771 15.6448C23.6224 15.3868 22.797 15.0774 22.4877 14.9227V13.9426C22.5909 13.7879 23.8804 12.9111 24.1384 12.8593C24.551 12.7045 25.5826 12.0339 25.7372 11.8792C25.9434 11.7759 25.9434 11.6212 25.9434 11.5179C25.8919 11.2085 25.3245 10.9506 25.0666 10.8473C24.7572 10.5897 24.4477 10.5897 24.0865 10.5897C23.8803 10.5897 23.6738 10.5897 23.4677 10.5382C22.5909 10.3835 21.8688 10.3835 21.25 10.435C20.7858 10.4864 20.0637 10.435 19.5992 10.3317C19.3931 10.2803 19.1866 10.2285 19.0319 10.2285H18.7224C20.5279 9.50639 22.4876 9.09374 24.5509 9.09374C26.6139 9.09374 28.6255 9.50641 30.4309 10.28C30.4824 10.4861 30.5342 10.6926 30.6371 10.8988C30.8432 11.3629 31.153 12.1368 31.153 12.7042C31.153 13.2716 31.2045 13.8904 31.153 14.0452C31.1016 14.1999 32.2877 15.5926 32.5457 15.5926C32.8037 15.6441 33.0098 15.4379 33.1646 15.18C33.3193 14.922 33.5772 14.6126 34.0413 14.2517C34.3508 14.0456 35.1247 13.9423 35.692 13.8905C36.208 14.4579 36.7235 15.0767 37.1876 15.6959C37.0844 15.7992 36.9297 15.9021 36.8782 15.9539C36.6721 16.1601 36.0529 16.7793 36.1047 17.2949C36.1561 17.759 36.6721 18.3782 37.3427 18.6876C37.9615 18.997 38.0648 19.6677 38.0648 19.7709C38.0648 19.8742 38.9416 20.4416 38.9416 20.4416C38.9416 20.4416 38.5803 21.1636 38.3742 21.1636C38.2195 21.1636 38.0648 21.8857 38.0648 22.1951C38.0648 22.5045 38.426 23.0205 38.8383 23.2785C39.251 23.5879 39.8698 22.7625 39.8698 22.7625L39.973 22.7111C40.0245 23.1752 40.0763 23.6393 40.0763 24.1553C39.5604 24.2585 38.8901 24.5165 38.6836 24.6194C38.4256 24.8256 37.8582 26.631 37.6002 26.8371C37.3423 26.9918 36.8267 29.4675 36.7749 29.7254C36.7749 29.8801 37.1876 30.8088 37.6517 31.479C37.8064 31.737 37.8578 32.0464 37.8064 32.3558L40.2821 32.6138C41.5715 30.1896 42.2936 27.4044 42.2936 24.5157C42.2936 14.7673 34.3507 6.82422 24.6021 6.82422C14.8536 6.82422 6.91064 14.7672 6.91064 24.5157C6.91028 34.2641 14.7503 42.2072 24.499 42.2072L24.4995 42.2073ZM13.2038 14.0453C13.307 14.0967 13.4618 14.2 13.6679 14.3547C13.7712 14.458 13.7712 15.1801 13.7712 15.9536V16.0565C13.7712 16.0565 14.4418 17.6553 13.8226 18.8934C13.152 20.2343 13.3067 22.4005 13.6165 22.865C13.9259 23.2777 15.37 25.186 15.5765 25.3925C15.7313 25.5472 16.2472 26.9399 16.2986 27.0946C16.3501 27.2493 17.2787 28.4355 18.3102 28.4355C18.8776 28.4355 19.5997 28.745 20.0123 28.9515C20.2185 29.0547 20.3735 29.1576 20.5282 29.1576C20.5797 29.1576 20.6315 29.2609 20.6829 29.3638C20.8376 29.6218 21.0442 29.9826 21.6112 30.292C21.7659 30.3953 21.9206 30.4467 22.0753 30.55C22.5912 30.8594 23.3133 31.2721 23.3648 31.3753C23.3648 31.4268 23.2615 31.53 23.1586 31.6333C22.8492 31.9945 22.2818 32.6134 22.4365 33.4387C22.6427 34.5735 24.242 35.9662 24.8093 36.3271C25.1706 36.5332 24.964 38.906 24.8093 39.3186C24.7579 39.4733 24.7061 39.7313 24.7061 39.9893H24.5514C16.0411 39.9893 9.12933 33.0778 9.12933 24.5672C9.07752 20.4927 10.6249 16.7789 13.2039 14.0452L13.2038 14.0453Z" fill="white"/>
<path d="M46.1622 18.6162C46.2654 19.0803 46.7296 19.3897 47.1423 19.3897C47.2455 19.3897 47.3484 19.3897 47.4002 19.3383C47.9676 19.1836 48.277 18.6162 48.1223 18.0488C47.8644 17.0173 47.5035 15.9858 47.0908 15.0057C46.8847 14.4898 46.2655 14.2322 45.7499 14.4384C45.2339 14.6445 44.9763 15.2637 45.1825 15.7793C45.5434 16.7594 45.9042 17.6876 46.1622 18.6162L46.1622 18.6162Z" fill="white"/>
<path d="M2.42316 16.4913C2.57787 16.5427 2.68113 16.5945 2.83583 16.5945C3.24851 16.5945 3.60937 16.3365 3.81592 15.9757C4.17715 15.0989 4.64126 14.1702 5.10539 13.3453C5.41481 12.8293 5.20865 12.2105 4.74416 11.901C4.22823 11.5916 3.60943 11.7978 3.29996 12.2623C2.78403 13.1905 2.26848 14.1706 1.90724 15.1506C1.59782 15.6658 1.85579 16.285 2.42318 16.4912L2.42316 16.4913Z" fill="white"/>
<path d="M42.2427 10.7956C42.4489 11.0536 42.7587 11.2083 43.0681 11.2083C43.2742 11.2083 43.5322 11.1568 43.6869 11.0021C44.151 10.6409 44.2028 10.022 43.8931 9.55792C43.2224 8.73258 42.5521 7.90722 41.7782 7.13373C41.3656 6.72105 40.6949 6.72105 40.2827 7.13373C39.87 7.5464 39.87 8.21706 40.2827 8.62932C41.0047 9.29996 41.6239 10.022 42.2427 10.7956V10.7956Z" fill="white"/>
<path d="M7.89134 8.96274C8.14931 8.96274 8.40728 8.85949 8.61343 8.65333C9.28406 7.98269 10.0576 7.31237 10.8311 6.69324C11.2953 6.33202 11.3471 5.71316 11.0373 5.24904C10.6761 4.78491 10.0572 4.73311 9.59308 5.04288C8.76774 5.71352 7.94238 6.38384 7.16888 7.1577C6.75621 7.57038 6.75621 8.24104 7.16888 8.6533C7.32395 8.85946 7.63337 8.96272 7.89133 8.96272L7.89134 8.96274Z" fill="white"/>
<path d="M24.4993 2.06296C25.4794 2.06296 26.4077 2.11441 27.3877 2.26912H27.5424C28.0583 2.26912 28.5224 1.9079 28.5738 1.34089C28.5738 0.773506 28.213 0.257921 27.6456 0.206158C26.6141 0.0514498 25.5826 0 24.4993 0H24.4479C23.8805 0 23.4678 0.464125 23.4678 1.03148C23.4678 1.59887 23.9319 2.06296 24.4993 2.06296H24.4993Z" fill="white"/>
<path d="M15.4737 3.86398C15.6284 3.86398 15.7317 3.81253 15.8864 3.76072C16.7632 3.39986 17.6915 3.09045 18.6201 2.83249C19.1875 2.67778 19.4969 2.11041 19.3422 1.54302C19.1875 0.975639 18.6201 0.666231 18.0527 0.82094C17.0212 1.07891 15.9897 1.43977 15.0096 1.85242C14.4937 2.05858 14.2361 2.67776 14.4423 3.19338C14.6484 3.65786 15.0611 3.86401 15.4737 3.86401L15.4737 3.86398Z" fill="white"/>
<path d="M33.0109 3.75329C33.8877 4.11452 34.8164 4.57863 35.6414 5.04276C35.7961 5.14602 36.0026 5.19747 36.1573 5.19747C36.5185 5.19747 36.8794 4.99131 37.0855 4.68153C37.3949 4.1656 37.1888 3.5468 36.7243 3.23733C35.7961 2.72139 34.816 2.20585 33.836 1.84461C33.3201 1.63845 32.7013 1.89606 32.495 2.412C32.2374 2.92829 32.4954 3.5471 33.011 3.75323L33.0109 3.75329Z" fill="white"/>
<path d="M33.1137 45.2331C32.2369 45.5943 31.3083 45.9037 30.3287 46.1613C29.7613 46.316 29.4519 46.8834 29.6066 47.4508C29.7098 47.9149 30.174 48.2243 30.5867 48.2243C30.6899 48.2243 30.7928 48.2243 30.8446 48.1729C31.8761 47.9149 32.9076 47.554 33.8877 47.1414C34.4036 46.9352 34.6612 46.316 34.4551 45.8004C34.2486 45.233 33.6297 44.9751 33.1138 45.233L33.1137 45.2331Z" fill="white"/>
<path d="M24.4998 46.9337C23.5197 46.9337 22.5397 46.8822 21.6115 46.7275C21.0441 46.6761 20.5282 47.0369 20.4253 47.6043C20.3738 48.1717 20.7347 48.6877 21.3021 48.7905C22.3336 48.9452 23.4169 48.9967 24.4484 48.9967C25.0158 48.9967 25.4799 48.5326 25.4799 47.9652C25.5313 47.3978 25.0672 46.9337 24.4998 46.9337L24.4998 46.9337Z" fill="white"/>
<path d="M47.9686 23.4063C47.4012 23.4063 46.9371 23.9222 46.9371 24.4896C46.9371 25.4697 46.8856 26.4497 46.7309 27.4298C46.6795 27.9972 47.0404 28.5131 47.6077 28.616H47.7624C48.2784 28.616 48.7425 28.2548 48.7939 27.6878C48.9486 26.6563 49.0001 25.5729 49.0001 24.49V24.3867C49.0001 23.819 48.536 23.4062 47.9686 23.4062L47.9686 23.4063Z" fill="white"/>
<path d="M6.75623 38.1631C6.39501 37.699 5.77614 37.6472 5.31203 37.9569C4.8479 38.3182 4.79609 38.937 5.10587 39.4011C5.7765 40.2265 6.44682 41.0519 7.22069 41.8253C7.42685 42.0315 7.68481 42.1348 7.94277 42.1348C8.20074 42.1348 8.45871 42.0315 8.66486 41.8253C9.07753 41.4127 9.07753 40.742 8.66486 40.3297C7.99422 39.6591 7.32363 38.937 6.75617 38.1632L6.75623 38.1631Z" fill="white"/>
<path d="M2.83737 30.3321C2.68267 29.7647 2.11529 29.4553 1.54791 29.61C0.980522 29.7647 0.671114 30.3321 0.825822 30.8995C1.08379 31.931 1.44466 32.9624 1.85731 33.9425C2.06346 34.3034 2.42469 34.5614 2.83739 34.5614C2.9921 34.5614 3.09536 34.5099 3.25007 34.4581C3.766 34.2519 4.0236 33.6328 3.81745 33.1171C3.40478 32.2404 3.09537 31.2603 2.83736 30.3321L2.83737 30.3321Z" fill="white"/>
<path d="M15.9376 45.2335C15.0608 44.8723 14.1322 44.4081 13.3072 43.944C12.7912 43.6346 12.1724 43.8408 11.863 44.3052C11.5535 44.8212 11.7597 45.44 12.2242 45.7494C13.1524 46.2654 14.1325 46.7809 15.1125 47.1422C15.2672 47.1936 15.3705 47.2454 15.5252 47.2454C15.9379 47.2454 16.2987 46.9875 16.5053 46.6266C16.7114 46.0585 16.4535 45.4396 15.9375 45.2335L15.9376 45.2335Z" fill="white"/>
<path d="M2.06301 24.5125C2.06301 23.5324 2.11446 22.5524 2.26917 21.6242C2.32062 21.0568 1.95975 20.5409 1.39238 20.438C0.773542 20.3862 0.258013 20.7989 0.206158 21.3662C0.0514494 22.3977 0 23.481 0 24.4611V24.5644C0 25.1318 0.464125 25.5959 1.03148 25.5959C1.59887 25.5959 2.06296 25.0799 2.06296 24.5125L2.06301 24.5125Z" fill="white"/>
<path d="M47.4004 31.5235C46.5236 31.5749 45.6468 31.9876 45.0795 32.6582L43.0679 35.0307L37.1365 34.36C36.7753 34.3086 36.4659 34.4633 36.2083 34.7213L35.125 35.9592C35.0217 36.0625 35.0735 36.2172 35.2282 36.2687L40.8502 37.7129L38.4256 41.1171L36.1561 40.7559C35.8981 40.7045 35.6402 40.8074 35.4855 41.0139L35.176 41.3751C35.1246 41.4784 35.1246 41.5813 35.2275 41.6331L37.1876 42.8711C37.0329 43.2323 37.1361 43.6446 37.4455 43.9025C37.755 44.1605 38.1676 44.212 38.5289 44.0058L40.0763 45.7594C40.1278 45.8626 40.2825 45.8626 40.3857 45.7594L40.6952 45.3982C40.8499 45.192 40.9013 44.934 40.8499 44.6761L40.0763 42.5613L43.0679 39.6211L45.3889 44.9337C45.4403 45.037 45.595 45.0884 45.6983 44.9851L46.7816 43.7472C46.9878 43.4892 47.091 43.1283 46.9878 42.8189L45.3889 37.0422L47.4005 34.6694C47.9679 33.9988 48.2773 33.0705 48.174 32.1937C48.1226 31.7814 47.7613 31.5234 47.4005 31.5234L47.4004 31.5235Z" fill="white"/>
</svg>
