<svg width="30" height="40" viewBox="0 0 30 40" fill="none" xmlns="http://www.w3.org/2000/svg">
<path d="M21.9234 9.49469H29.3242L20.7695 0.90625V8.33629C20.7695 8.97542 21.2868 9.49469 21.9234 9.49469Z" fill="white"/>
<path d="M3.46154 39.7705H26.5385C28.4472 39.7705 30 38.2116 30 36.2953V11.8144H21.9231C20.0143 11.8144 18.4615 10.2556 18.4615 8.33926V0.230469H3.46154C1.55277 0.230469 0 1.78936 0 3.70566V36.2953C0 38.2116 1.55277 39.7705 3.46154 39.7705ZM10.3846 18.8421H21.9231C22.5608 18.8421 23.0769 19.3602 23.0769 20.0005C23.0769 20.6407 22.5608 21.1589 21.9231 21.1589H10.3846C9.74685 21.1589 9.23077 20.6407 9.23077 20.0005C9.23077 19.3602 9.74685 18.8421 10.3846 18.8421ZM10.3846 23.4757H21.9231C22.5608 23.4757 23.0769 23.9938 23.0769 24.6341C23.0769 25.2743 22.5608 25.7925 21.9231 25.7925H10.3846C9.74685 25.7925 9.23077 25.2743 9.23077 24.6341C9.23077 23.9938 9.74685 23.4757 10.3846 23.4757ZM10.3846 28.1092H21.9231C22.5608 28.1092 23.0769 28.6274 23.0769 29.2676C23.0769 29.9079 22.5608 30.426 21.9231 30.426H10.3846C9.74685 30.426 9.23077 29.9079 9.23077 29.2676C9.23077 28.6274 9.74685 28.1092 10.3846 28.1092ZM5.76923 18.8421C6.40646 18.8421 6.92308 19.3607 6.92308 20.0005C6.92308 20.6402 6.40646 21.1589 5.76923 21.1589C5.132 21.1589 4.61538 20.6402 4.61538 20.0005C4.61538 19.3607 5.132 18.8421 5.76923 18.8421ZM5.76923 23.4757C6.40646 23.4757 6.92308 23.9943 6.92308 24.6341C6.92308 25.2738 6.40646 25.7925 5.76923 25.7925C5.132 25.7925 4.61538 25.2738 4.61538 24.6341C4.61538 23.9943 5.132 23.4757 5.76923 23.4757ZM5.76923 28.1092C6.40646 28.1092 6.92308 28.6279 6.92308 29.2676C6.92308 29.9074 6.40646 30.426 5.76923 30.426C5.132 30.426 4.61538 29.9074 4.61538 29.2676C4.61538 28.6279 5.132 28.1092 5.76923 28.1092Z" fill="white"/>
</svg>
