<svg width="37" height="50" viewBox="0 0 37 50" fill="none" xmlns="http://www.w3.org/2000/svg">
<path d="M36.7001 41.2987L31.248 33.9609C28.0047 36.7562 23.9379 38.4068 19.6709 38.6597L27.0187 48.549C27.1592 48.7381 27.3418 48.8917 27.5519 48.9975C27.762 49.1033 27.9938 49.1584 28.2288 49.1584H28.2536C28.4928 49.1545 28.7276 49.0936 28.9387 48.9806C29.1499 48.8677 29.3312 48.706 29.4679 48.5089L31.9085 44.9896L35.9638 43.6444C36.191 43.569 36.397 43.4406 36.565 43.2696C36.733 43.0986 36.8581 42.89 36.93 42.6609C37.002 42.4319 37.0186 42.1889 36.9787 41.9522C36.9388 41.7154 36.8433 41.4915 36.7003 41.299L36.7001 41.2987Z" fill="white"/>
<path d="M0.299559 41.299C0.156535 41.4915 0.0611244 41.7154 0.0211881 41.9522C-0.0187483 42.1889 -0.00206689 42.4319 0.0698577 42.6609C0.141782 42.89 0.266891 43.0986 0.434875 43.2696C0.602859 43.4406 0.808909 43.569 1.03605 43.6444L5.0914 44.9896L7.53176 48.5087C7.66845 48.7058 7.84982 48.8675 8.06095 48.9804C8.27208 49.0934 8.50691 49.1543 8.7461 49.1582H8.77091C9.00594 49.1582 9.23773 49.1031 9.44781 48.9973C9.65789 48.8915 9.84046 48.7379 9.981 48.5488L17.3288 38.6597C13.0617 38.4068 8.995 36.7562 5.75174 33.9609L0.299559 41.299Z" fill="white"/>
<path d="M36.6174 18.9935C36.6174 8.96416 28.49 0.804688 18.5001 0.804688C8.51022 0.804688 0.382812 8.96416 0.382812 18.9935C0.382812 29.0228 8.51022 37.1823 18.5001 37.1823C28.49 37.1823 36.6174 29.0228 36.6174 18.9935ZM18.5001 32.6351C11.0079 32.6351 4.91214 26.5153 4.91214 18.9935C4.91214 11.4717 11.0079 5.35188 18.5001 5.35188C25.9924 5.35188 32.0881 11.4717 32.0881 18.9935C32.0881 26.5153 25.9924 32.6351 18.5001 32.6351Z" fill="white"/>
<path d="M18.4996 6.86719C16.1108 6.86719 13.7756 7.57836 11.7893 8.91076C9.80306 10.2432 8.25496 12.137 7.34079 14.3527C6.42662 16.5684 6.18743 19.0065 6.65347 21.3587C7.11951 23.7109 8.26985 25.8715 9.95902 27.5673C11.6482 29.2632 13.8003 30.418 16.1433 30.8859C18.4862 31.3538 20.9147 31.1137 23.1217 30.1959C25.3287 29.2781 27.2151 27.7239 28.5423 25.7298C29.8694 23.7357 30.5778 21.3913 30.5778 18.993C30.5742 15.7782 29.3005 12.696 27.0362 10.4228C24.7719 8.1495 21.7018 6.8708 18.4996 6.86719ZM25.0631 18.502L22.8766 20.6414L23.3927 23.6626C23.4403 23.9414 23.4093 24.2279 23.3032 24.4899C23.197 24.7519 23.02 24.9788 22.7921 25.145C22.5642 25.3113 22.2945 25.4102 22.0136 25.4306C21.7326 25.451 21.4515 25.3921 21.2022 25.2605L18.4996 23.8344L15.797 25.2608C15.5477 25.3923 15.2667 25.4512 14.9858 25.4308C14.7049 25.4105 14.4352 25.3116 14.2074 25.1454C13.9795 24.9792 13.8025 24.7524 13.6963 24.4905C13.5901 24.2286 13.559 23.9421 13.6065 23.6634L14.1226 20.6422L11.9361 18.5025C11.7344 18.3051 11.5917 18.0549 11.5242 17.7804C11.4567 17.5058 11.4671 17.2177 11.5541 16.9487C11.6412 16.6797 11.8015 16.4406 12.0169 16.2583C12.2322 16.076 12.4941 15.9578 12.7729 15.9172L15.7945 15.4764L17.1457 12.7276C17.2703 12.4738 17.4632 12.2602 17.7025 12.1108C17.9418 11.9614 18.218 11.8822 18.4998 11.8822C18.7816 11.8822 19.0578 11.9614 19.2971 12.1108C19.5364 12.2602 19.7292 12.4738 19.8539 12.7276L21.2051 15.4764L24.2267 15.9172C24.5054 15.9578 24.7673 16.076 24.9827 16.2583C25.1981 16.4406 25.3584 16.6797 25.4455 16.9487C25.5325 17.2177 25.5429 17.5058 25.4754 17.7804C25.4079 18.0549 25.2652 18.3051 25.0634 18.5025L25.0631 18.502Z" fill="white"/>
</svg>
