<svg width="115" height="103" viewBox="0 0 115 103" fill="none" xmlns="http://www.w3.org/2000/svg">
<path d="M113.708 39.6466C113.667 39.6466 113.627 39.6341 113.594 39.6107L58.2657 1.07859C58.0973 0.961874 57.8973 0.8995 57.6924 0.899849C57.4875 0.900198 57.2876 0.963254 57.1197 1.08054L2.19 39.6103C2.14655 39.6408 2.09278 39.6528 2.04051 39.6436C1.98824 39.6344 1.94175 39.6049 1.91128 39.5614C1.88081 39.518 1.86884 39.4642 1.87801 39.4119C1.88719 39.3597 1.91675 39.3132 1.9602 39.2827L56.8899 0.752906C57.1251 0.588727 57.4049 0.500473 57.6917 0.500002C57.9786 0.499531 58.2586 0.586864 58.4944 0.750268L113.823 39.2823C113.858 39.3067 113.884 39.3415 113.898 39.3819C113.911 39.4222 113.912 39.4658 113.899 39.5065C113.886 39.5471 113.861 39.5826 113.827 39.6078C113.792 39.633 113.751 39.6466 113.708 39.6466L113.708 39.6466Z" fill="#3F3D56"/>
<path d="M5.33203 41.0122L57.75 2.16406L110.566 43.7764L60.4508 73.4852L33.2427 67.2834L5.33203 41.0122Z" fill="#002664"/>
<path d="M35.5368 91.8337H9.64108C9.48207 91.8339 9.32458 91.8028 9.17761 91.7421C9.03065 91.6814 8.8971 91.5923 8.78459 91.4799C8.67208 91.3676 8.58283 91.2341 8.52193 91.0872C8.46104 90.9404 8.42969 90.7829 8.42969 90.6239C8.42969 90.4649 8.46104 90.3074 8.52193 90.1605C8.58283 90.0137 8.67208 89.8802 8.78459 89.7679C8.8971 89.6555 9.03065 89.5664 9.17761 89.5057C9.32458 89.445 9.48207 89.4139 9.64108 89.4141H35.5368C35.6958 89.4139 35.8533 89.445 36.0003 89.5057C36.1472 89.5664 36.2808 89.6555 36.3933 89.7679C36.5058 89.8802 36.5951 90.0137 36.656 90.1605C36.7169 90.3074 36.7482 90.4649 36.7482 90.6239C36.7482 90.7829 36.7169 90.9404 36.656 91.0872C36.5951 91.2341 36.5058 91.3676 36.3933 91.4799C36.2808 91.5923 36.1472 91.6814 36.0003 91.7421C35.8533 91.8028 35.6958 91.8339 35.5368 91.8337Z" fill="#A71930"/>
<path d="M18.9319 86.6345H9.64108C9.48207 86.6347 9.32458 86.6036 9.17761 86.5429C9.03065 86.4822 8.8971 86.3931 8.78459 86.2807C8.67208 86.1683 8.58283 86.0349 8.52193 85.888C8.46104 85.7411 8.42969 85.5837 8.42969 85.4247C8.42969 85.2657 8.46104 85.1082 8.52193 84.9613C8.58283 84.8144 8.67208 84.681 8.78459 84.5686C8.8971 84.4563 9.03065 84.3672 9.17761 84.3065C9.32458 84.2458 9.48207 84.2146 9.64108 84.2148H18.9319C19.0909 84.2146 19.2484 84.2458 19.3954 84.3065C19.5423 84.3672 19.6759 84.4563 19.7884 84.5686C19.9009 84.681 19.9901 84.8144 20.051 84.9613C20.1119 85.1082 20.1433 85.2657 20.1433 85.4247C20.1433 85.5837 20.1119 85.7411 20.051 85.888C19.9901 86.0349 19.9009 86.1683 19.7884 86.2807C19.6759 86.3931 19.5423 86.4822 19.3954 86.5429C19.2484 86.6036 19.0909 86.6347 18.9319 86.6345Z" fill="#A71930"/>
<path d="M58.4877 62.6522C58.2909 62.6524 58.0959 62.6142 57.9137 62.5397L25.5859 49.126V7.1387C25.5864 6.76742 25.734 6.41147 25.9966 6.14893C26.2591 5.8864 26.6151 5.73871 26.9864 5.73828H89.0048C89.376 5.73871 89.732 5.8864 89.9945 6.14893C90.2571 6.41147 90.4047 6.76742 90.4052 7.1387V49.1553L90.3444 49.1813L59.0791 62.5332C58.8918 62.6118 58.6908 62.6523 58.4877 62.6522Z" fill="white"/>
<path d="M58.4862 62.7506C58.2763 62.7508 58.0684 62.7101 57.8741 62.6308L25.4844 49.1912V7.13716C25.4848 6.73936 25.6431 6.35798 25.9243 6.07669C26.2056 5.7954 26.587 5.63717 26.9848 5.63672H89.0032C89.401 5.63717 89.7824 5.7954 90.0637 6.07669C90.345 6.35798 90.5032 6.73936 90.5037 7.13716V49.2198L59.1168 62.6236C58.9172 62.7076 58.7027 62.7507 58.4862 62.7506ZM25.8845 48.924L58.0266 62.2609C58.3264 62.3825 58.6622 62.3805 58.9605 62.2553L90.1036 48.9556V7.13716C90.1032 6.84545 89.9872 6.56577 89.7809 6.3595C89.5746 6.15322 89.295 6.03718 89.0032 6.03684H26.9848C26.6931 6.03718 26.4134 6.15322 26.2072 6.3595C26.0009 6.56577 25.8848 6.84545 25.8845 7.13716L25.8845 48.924Z" fill="#3F3D56"/>
<path d="M113.309 39.2461H113.269L90.3024 49.053L58.8791 62.471C58.7563 62.5226 58.6245 62.5496 58.4913 62.5503C58.3581 62.551 58.2261 62.5254 58.1028 62.475L25.6832 49.025L2.1522 39.2621L2.11625 39.2461H2.0762C1.70491 39.2465 1.34895 39.3942 1.08641 39.6567C0.823868 39.9193 0.676193 40.2752 0.675781 40.6465V101.465C0.676194 101.836 0.823868 102.192 1.08641 102.454C1.34895 102.717 1.70491 102.865 2.0762 102.865H113.309C113.681 102.865 114.036 102.717 114.299 102.454C114.562 102.192 114.709 101.836 114.71 101.465V40.6465C114.709 40.2752 114.562 39.9193 114.299 39.6567C114.036 39.3942 113.681 39.2465 113.309 39.2461ZM114.31 101.465C114.309 101.73 114.204 101.984 114.016 102.172C113.829 102.359 113.574 102.465 113.309 102.465H2.0762C1.81093 102.465 1.55657 102.359 1.369 102.172C1.18143 101.984 1.07601 101.73 1.0759 101.465V40.6465C1.07626 40.3878 1.1766 40.1393 1.35594 39.9529C1.53528 39.7665 1.77973 39.6566 2.0382 39.6462L25.6832 49.4571L57.9488 62.8451C58.2981 62.9872 58.6895 62.9851 59.0371 62.8391L90.3024 49.4871L113.349 39.6462C113.607 39.6574 113.851 39.7675 114.03 39.9539C114.209 40.1402 114.309 40.3882 114.31 40.6465V101.465Z" fill="#3F3D56"/>
<path d="M58.1614 50.7449C56.968 50.7471 55.8062 50.3612 54.8513 49.6453L54.7921 49.6009L42.3262 40.0565C41.7488 39.6142 41.2643 39.0625 40.9002 38.4328C40.5361 37.8032 40.2996 37.1081 40.2041 36.3871C40.1087 35.6661 40.1562 34.9333 40.344 34.2307C40.5317 33.528 40.856 32.8692 41.2983 32.2919C41.7407 31.7146 42.2924 31.23 42.922 30.8659C43.5516 30.5018 44.2468 30.2653 44.9678 30.1699C45.6888 30.0744 46.4215 30.1219 47.1242 30.3097C47.8269 30.4974 48.4857 30.8217 49.063 31.2641L57.1374 37.4555L76.2187 12.5707C76.6612 11.9935 77.2131 11.5092 77.8429 11.1453C78.4726 10.7814 79.1678 10.5452 79.8889 10.45C80.6099 10.3548 81.3427 10.4026 82.0452 10.5906C82.7478 10.7786 83.4065 11.1031 83.9836 11.5457L83.865 11.7068L83.9867 11.5481C85.1509 12.4428 85.9127 13.7629 86.1049 15.2186C86.297 16.6743 85.9039 18.1468 85.0117 19.3131L62.5676 48.5835C62.0485 49.258 61.381 49.8038 60.6169 50.1786C59.8527 50.5535 59.0125 50.7472 58.1614 50.7449Z" fill="#A71930"/>
</svg>
