<svg width="20" height="17" viewBox="0 0 20 17" fill="none" xmlns="http://www.w3.org/2000/svg">
<path d="M18.2693 1.19218C16.6338 -0.256767 13.974 -0.256767 12.3385 1.19218L1.46474 10.7981C1.37973 10.8733 1.3271 10.9699 1.31091 11.0736L0.505291 16.3471C0.481001 16.4973 0.541726 16.6476 0.659127 16.7513C0.760335 16.8408 0.902026 16.8944 1.04372 16.8944C1.06801 16.8944 1.0923 16.8944 1.11659 16.8909L4.71149 16.4615C5.01107 16.4258 5.22158 16.1825 5.1811 15.9177C5.14061 15.653 4.86533 15.467 4.56575 15.5027L1.68335 15.8462L2.24607 12.1684L6.62634 16.0394C6.72755 16.1288 6.86924 16.1825 7.01093 16.1825C7.15263 16.1825 7.29432 16.1324 7.39552 16.0394L18.2693 6.43342C19.0628 5.7322 19.5 4.80201 19.5 3.81101C19.5 2.82 19.0628 1.88982 18.2693 1.19218ZM12.549 2.3728L14.3748 3.98631L4.4524 12.7551L2.62661 11.1416L12.549 2.3728ZM7.01498 15.0162L5.22968 13.4384L15.1521 4.66964L16.9374 6.24738L7.01498 15.0162ZM17.6985 5.5569L13.3304 1.69662C13.885 1.29235 14.5772 1.07054 15.3059 1.07054C16.1358 1.07054 16.9131 1.35675 17.5001 1.87193C18.0871 2.38711 18.4069 3.07759 18.4069 3.81101C18.4069 4.45856 18.1559 5.06676 17.6985 5.5569Z" fill="#A71930"/>
</svg>
