<svg width="26" height="27" viewBox="0 0 26 27" fill="none" xmlns="http://www.w3.org/2000/svg">
<path d="M13 0.897437C16.4478 0.897437 19.7544 2.27248 22.1924 4.72007C24.6304 7.16766 26 10.4873 26 13.9487C26 17.4101 24.6304 20.7298 22.1924 23.1774C19.7544 25.625 16.4478 27 13 27C9.55219 27 6.24559 25.625 3.80761 23.1774C1.36964 20.7298 -4.17539e-07 17.4101 -5.68248e-07 13.9487C-7.18957e-07 10.4873 1.36964 7.16766 3.80761 4.72007C6.24558 2.27248 9.55218 0.897438 13 0.897437ZM7.3125 13.133C7.09701 13.133 6.89035 13.219 6.73798 13.3719C6.5856 13.5249 6.5 13.7324 6.5 13.9487C6.5 14.1651 6.5856 14.3725 6.73798 14.5255C6.89035 14.6785 7.09701 14.7644 7.3125 14.7644L16.7261 14.7644L13.2373 18.2654C13.0847 18.4186 12.999 18.6263 12.999 18.8429C12.999 19.0596 13.0847 19.2673 13.2373 19.4205C13.3898 19.5736 13.5967 19.6597 13.8125 19.6597C14.0283 19.6597 14.2352 19.5736 14.3878 19.4205L19.2628 14.5262C19.3384 14.4505 19.3984 14.3605 19.4394 14.2614C19.4804 14.1623 19.5015 14.056 19.5015 13.9487C19.5015 13.8414 19.4804 13.7352 19.4394 13.6361C19.3984 13.537 19.3384 13.447 19.2628 13.3712L14.3878 8.47697C14.2352 8.3238 14.0283 8.23775 13.8125 8.23775C13.5967 8.23775 13.3898 8.3238 13.2373 8.47697C13.0847 8.63014 12.999 8.83788 12.999 9.05449C12.999 9.2711 13.0847 9.47884 13.2373 9.63201L16.7261 13.133L7.3125 13.133Z" fill="white"/>
</svg>
