<svg width="18" height="20" viewBox="0 0 18 20" fill="none" xmlns="http://www.w3.org/2000/svg">
<path d="M8.94963 10.3837C11.8063 10.3837 14.1415 8.04853 14.1415 5.19186C14.1415 2.33519 11.8063 0 8.94963 0C6.09296 0 3.75781 2.33519 3.75781 5.19186C3.75781 8.04853 6.093 10.3837 8.94963 10.3837Z" fill="#002664"/>
<path d="M17.8611 14.5354C17.7251 14.1953 17.5437 13.8779 17.3397 13.5831C16.2967 12.0414 14.6871 11.0212 12.8733 10.7718C12.6466 10.7492 12.3972 10.7945 12.2158 10.9305C11.2636 11.6333 10.13 11.9961 8.95108 11.9961C7.77212 11.9961 6.63854 11.6333 5.68632 10.9305C5.50493 10.7945 5.25553 10.7265 5.02884 10.7718C3.21509 11.0212 1.58273 12.0414 0.562502 13.5831C0.358457 13.8779 0.177065 14.218 0.0410639 14.5354C-0.0269366 14.6714 -0.00428422 14.8301 0.0637163 14.9661C0.245109 15.2835 0.471806 15.601 0.675851 15.873C0.993244 16.3038 1.33333 16.6892 1.71877 17.0519C2.03616 17.3693 2.39891 17.6641 2.76169 17.9588C4.55275 19.2965 6.70659 19.9993 8.92843 19.9993C11.1503 19.9993 13.3041 19.2964 15.0952 17.9588C15.4579 17.6868 15.8206 17.3693 16.1381 17.0519C16.5008 16.6892 16.8636 16.3038 17.181 15.873C17.4077 15.5783 17.6118 15.2835 17.7931 14.9661C17.9064 14.8301 17.9291 14.6714 17.8611 14.5354Z" fill="#002664"/>
</svg>
