<svg width="21" height="15" viewBox="0 0 21 15" fill="none" xmlns="http://www.w3.org/2000/svg">
<path d="M13.6136 8.25L11.8548 10.0148C11.1416 10.7305 9.88668 10.7459 9.15804 10.0148L7.39915 8.25L1.08203 14.5876C1.31718 14.6964 1.57644 14.7612 1.85207 14.7612H19.1608C19.4364 14.7612 19.6956 14.6964 19.9307 14.5877L13.6136 8.25Z" fill="#002664"/>
<path d="M19.1607 0H1.85198C1.57636 0 1.31709 0.0648873 1.08203 0.173621L7.83232 6.9463C7.83277 6.94675 7.8333 6.94683 7.83375 6.94729C7.8342 6.94774 7.83429 6.94835 7.83429 6.94835L10.0292 9.1505C10.2623 9.38363 10.7505 9.38363 10.9836 9.1505L13.1781 6.94872C13.1781 6.94872 13.1786 6.94774 13.179 6.94729C13.179 6.94729 13.18 6.94675 13.1805 6.9463L19.9306 0.17358C19.6955 0.0648053 19.4364 0 19.1607 0Z" fill="#002664"/>
<path d="M0.196302 1.02344C0.0746491 1.26945 0 1.54254 0 1.83506V12.9094C0 13.2019 0.074567 13.475 0.196261 13.721L6.52433 7.37242L0.196302 1.02344Z" fill="#002664"/>
<path d="M20.8026 1.02344L14.4746 7.37251L20.8026 13.7212C20.9242 13.4751 20.9989 13.2021 20.9989 12.9095V1.83514C20.9989 1.54254 20.9242 1.26945 20.8026 1.02344Z" fill="#002664"/>
</svg>
